<?xml version="1.0" encoding="UTF-8"?>
<!DOCTYPE svg PUBLIC "-//W3C//DTD SVG 1.1//EN" "http://www.w3.org/Graphics/SVG/1.1/DTD/svg11.dtd">
<!-- Creator: CorelDRAW 2019 (64-Bit) -->
<svg xmlns="http://www.w3.org/2000/svg" xml:space="preserve" width="7mm" height="3.9mm" version="1.1" style="shape-rendering:geometricPrecision; text-rendering:geometricPrecision; image-rendering:optimizeQuality; fill-rule:evenodd; clip-rule:evenodd"
viewBox="0 0 700 390"
 xmlns:xlink="http://www.w3.org/1999/xlink"
 xmlns:xodm="http://www.corel.com/coreldraw/odm/2003">
 <defs>
  <style type="text/css">
   <![CDATA[
    .fil0 {fill:white}
    .fil1 {fill:white;fill-rule:nonzero}
   ]]>
  </style>
 </defs>
 <g id="Capa_x0020_1">
  <metadata id="CorelCorpID_0Corel-Layer"/>
  <g id="_2124978322672">
   <g>
    <path class="fil0" d="M323.52 42.22l5.43 0c20.56,1.02 41.15,1.92 61.69,3.31 25.79,1.75 25.1,5.05 38.56,26.49 4.15,6.59 13.24,20.66 16.4,27.03 9.97,0.96 5.48,-10.73 13.63,-13.32 4.22,-1.35 18.36,1.15 20.91,5.33 1.83,3 1.07,8.11 -0.53,11.01 -3.23,5.84 -13.95,5.76 -20.04,7.07 -5.98,1.29 -3.98,-2.3 -7.61,-1.95 -0.84,0.08 -2.1,0.34 -2.64,0.77 0.79,1.17 4.21,3.23 5.64,4.25 26.04,18.59 28.84,30.04 26,61.33 -1.63,17.34 -1.61,17.52 -4.79,54.77 -0.03,6.6 -7.38,5.22 -14.54,5.28 -32.78,0.43 -65.56,0.82 -98.33,1.26 -13.26,0.19 -26.52,0.51 -39.78,0.5l0 -193.13zm84.28 15.44c3.44,2.62 19.68,30.68 29.45,47.72 -40.1,-1.68 -73.57,-3.87 -113.73,-3.67l0 -51.31c29.76,1.69 80.85,4.63 84.28,7.26zm-41.25 159.62c-4.85,1.77 -23.74,3.21 -43.03,3.02 0,-27.87 0,-38.13 0,-60.32 12.26,0.18 59.71,0.68 64.53,8.27 4.81,7.58 -5.49,43.19 -21.5,49.03zm86.38 -20.59c20.41,1.86 15.97,11.97 14.52,23.87 -1.23,3.29 -4.91,3.63 -9.05,3.63 -12.84,0.68 -41.3,1.36 -50.3,-0.59 -7.22,-1.56 -10.27,-7.09 -12.46,-13.43 -7.98,-23.11 37.33,-15.3 57.29,-13.48zm-56.57 -53.33c6.16,-2.61 55,-7.44 63.46,-6.97 6.44,0.36 4.91,13.92 3.09,17.75 -6.11,12.89 -60.88,14.74 -66.55,-10.78zm39.86 96.75c11.03,-0.93 22.88,0.03 34.08,-0.51 4.69,-0.23 5.61,-1.07 8.69,-2.98 0.18,2.06 0.21,20.22 -0.09,21.29 -0.84,2.9 -4.81,2.1 -8.57,2.1 -4.92,0 -31.06,0.2 -32.27,-0.24 -2.69,-0.99 -1.88,-5.51 -1.88,-8.81 0,-3.4 -0.21,-7.54 0.04,-10.85z"/>
    <path class="fil0" d="M325.46 42.22l-5.43 0c-20.57,1.02 -41.15,1.92 -61.7,3.31 -25.79,1.75 -25.1,5.05 -38.56,26.49 -4.14,6.59 -13.24,20.66 -16.4,27.03 -9.96,0.96 -5.47,-10.73 -13.62,-13.32 -4.22,-1.35 -18.36,1.15 -20.91,5.33 -1.83,3 -1.07,8.11 0.53,11.01 3.23,5.84 13.95,5.76 20.04,7.07 5.98,1.29 3.97,-2.3 7.61,-1.95 0.84,0.08 2.09,0.34 2.63,0.77 -0.79,1.17 -4.21,3.23 -5.63,4.25 -26.04,18.59 -28.84,30.04 -26,61.33 1.62,17.34 1.61,17.52 4.79,54.77 0.03,6.6 7.38,5.22 14.54,5.28 32.77,0.43 65.55,0.82 98.33,1.26 13.26,0.19 26.52,0.51 39.78,0.5l0 -193.13zm-84.29 15.44c-3.44,2.62 -19.68,30.68 -29.44,47.72 40.1,-1.68 73.56,-3.87 113.73,-3.67l0 -51.31c-29.77,1.69 -80.85,4.63 -84.29,7.26zm41.25 159.62c4.85,1.77 23.75,3.21 43.04,3.02 0,-27.87 0,-38.13 0,-60.32 -12.26,0.18 -59.72,0.68 -64.53,8.27 -4.81,7.58 5.49,43.19 21.49,49.03zm-86.37 -20.59c-20.42,1.86 -15.97,11.97 -14.52,23.87 1.22,3.29 4.9,3.63 9.05,3.63 12.83,0.68 41.29,1.36 50.29,-0.59 7.22,-1.56 10.28,-7.09 12.47,-13.43 7.97,-23.11 -37.34,-15.3 -57.29,-13.48zm56.56 -53.33c-6.15,-2.61 -55,-7.44 -63.45,-6.97 -6.44,0.36 -4.91,13.92 -3.1,17.75 6.11,12.89 60.88,14.74 66.55,-10.78zm-39.85 96.75c-11.04,-0.93 -22.89,0.03 -34.09,-0.51 -4.68,-0.23 -5.6,-1.07 -8.68,-2.98 -0.19,2.06 -0.22,20.22 0.09,21.29 0.83,2.9 4.8,2.1 8.57,2.1 4.92,0 31.06,0.2 32.26,-0.24 2.7,-0.99 1.88,-5.51 1.88,-8.81 0,-3.4 0.21,-7.54 -0.03,-10.85z"/>
    <circle class="fil0" cx="450.92" cy="210.44" r="10.9"/>
    <circle class="fil0" cx="198.05" cy="210.44" r="10.9"/>
    <circle class="fil0" cx="428.15" cy="210.8" r="7.69"/>
    <circle class="fil0" cx="220.83" cy="210.8" r="7.69"/>
   </g>
   <path class="fil1" d="M28.83 338.72l19.4 0 -3.76 -10.36c-1.15,-2.84 -2.15,-5.5 -3,-7.97 -0.84,-2.48 -1.73,-5.3 -2.68,-8.49l-0.2 0c-1.02,2.98 -1.97,5.74 -2.85,8.28 -0.88,2.54 -1.89,5.3 -3.04,8.28l-3.87 10.26zm4.88 -38.91l10.35 0 24.9 64.01 -11.38 0 -6.4 -16.76 -25.09 0 -6.3 16.76 -11.28 0 25.2 -64.01z"/>
   <path id="1" class="fil1" d="M76.36 299.81l10.87 0 0 38.31c0,6.36 1.19,10.97 3.56,13.81 2.37,2.85 6.16,4.27 11.38,4.27 5.14,0 8.88,-1.54 11.22,-4.62 2.33,-3.08 3.5,-7.17 3.5,-12.25l0 -39.52 10.87 0 0 39.02c0,8.87 -2.22,15.42 -6.65,19.66 -4.44,4.23 -10.76,6.35 -18.94,6.35 -8.06,0 -14.38,-2.12 -18.95,-6.35 -4.57,-4.24 -6.86,-10.96 -6.86,-20.17l0 -38.51z"/>
   <polygon id="2" class="fil1" points="185.15,299.81 185.15,308.75 165.86,308.75 165.86,363.82 154.99,363.82 154.99,308.75 136,308.75 136,299.81 "/>
   <path id="3" class="fil1" d="M219.38 298.8c4.4,0 8.46,0.71 12.19,2.13 3.71,1.42 6.93,3.52 9.64,6.3 2.71,2.78 4.83,6.23 6.35,10.36 1.52,4.13 2.29,8.88 2.29,14.23 0,5.28 -0.78,9.97 -2.34,14.07 -1.56,4.1 -3.73,7.55 -6.5,10.36 -2.78,2.81 -6.05,4.95 -9.8,6.4 -3.76,1.46 -7.84,2.19 -12.24,2.19 -4.4,0 -8.47,-0.72 -12.19,-2.14 -3.73,-1.42 -6.93,-3.52 -9.64,-6.3 -2.71,-2.77 -4.83,-6.21 -6.35,-10.31 -1.53,-4.1 -2.29,-8.86 -2.29,-14.27 0,-5.29 0.78,-9.98 2.34,-14.08 1.56,-4.09 3.72,-7.55 6.5,-10.36 2.78,-2.81 6.03,-4.94 9.79,-6.4 3.76,-1.46 7.84,-2.18 12.25,-2.18zm-19.2 33.02c0,4.13 0.51,7.73 1.52,10.82 1.01,3.08 2.39,5.64 4.11,7.67 1.73,2.03 3.76,3.54 6.1,4.52 2.34,0.98 4.83,1.47 7.47,1.47 2.64,0 5.11,-0.49 7.41,-1.47 2.31,-0.98 4.29,-2.49 5.95,-4.52 1.65,-2.03 2.97,-4.59 3.95,-7.67 0.98,-3.09 1.47,-6.69 1.47,-10.82 0,-4.27 -0.51,-7.95 -1.52,-11.03 -1.02,-3.08 -2.39,-5.62 -4.11,-7.62 -1.72,-2 -3.76,-3.47 -6.09,-4.42 -2.34,-0.95 -4.83,-1.42 -7.47,-1.42 -2.64,0 -5.11,0.49 -7.42,1.47 -2.3,0.99 -4.28,2.49 -5.94,4.52 -1.66,2.04 -2.98,4.59 -3.96,7.68 -0.97,3.08 -1.47,6.68 -1.47,10.82z"/>
   <polygon id="4" class="fil1" points="300.93,299.81 300.93,308.75 281.64,308.75 281.64,363.82 270.77,363.82 270.77,308.75 251.78,308.75 251.78,299.81 "/>
   <path id="5" class="fil1" d="M309.56 299.81l22.04 0c3.39,0 6.38,0.49 8.99,1.48 2.61,0.98 4.79,2.33 6.55,4.06 1.76,1.73 3.09,3.78 3.97,6.15 0.88,2.37 1.32,4.94 1.32,7.72 0,2.5 -0.39,4.74 -1.17,6.7 -0.78,1.97 -1.78,3.68 -3,5.13 -1.22,1.46 -2.59,2.71 -4.11,3.76 -1.53,1.05 -3.07,1.88 -4.63,2.49l16.46 26.52 -12.29 0 -14.11 -24.59 -9.45 0 0 24.59 -10.57 0 0 -64.01zm10.57 30.79l6.91 0c2.03,0 3.88,-0.21 5.57,-0.61 1.7,-0.41 3.19,-1.05 4.48,-1.93 1.28,-0.88 2.28,-2.02 2.99,-3.41 0.71,-1.39 1.07,-3.06 1.07,-5.03 0,-3.79 -1.08,-6.62 -3.25,-8.48 -2.17,-1.86 -5.29,-2.79 -9.34,-2.79l-8.43 0 0 22.25z"/>
   <path id="6" class="fil1" d="M392.86 298.8c4.39,0 8.45,0.71 12.18,2.13 3.72,1.42 6.94,3.52 9.65,6.3 2.71,2.78 4.83,6.23 6.35,10.36 1.52,4.13 2.29,8.88 2.29,14.23 0,5.28 -0.78,9.97 -2.34,14.07 -1.56,4.1 -3.73,7.55 -6.5,10.36 -2.78,2.81 -6.05,4.95 -9.81,6.4 -3.76,1.46 -7.84,2.19 -12.23,2.19 -4.4,0 -8.47,-0.72 -12.19,-2.14 -3.73,-1.42 -6.94,-3.52 -9.65,-6.3 -2.71,-2.77 -4.83,-6.21 -6.35,-10.31 -1.53,-4.1 -2.28,-8.86 -2.28,-14.27 0,-5.29 0.77,-9.98 2.33,-14.08 1.56,-4.09 3.72,-7.55 6.5,-10.36 2.78,-2.81 6.04,-4.94 9.8,-6.4 3.76,-1.46 7.84,-2.18 12.25,-2.18zm-19.21 33.02c0,4.13 0.51,7.73 1.53,10.82 1.01,3.08 2.39,5.64 4.11,7.67 1.73,2.03 3.76,3.54 6.1,4.52 2.34,0.98 4.83,1.47 7.47,1.47 2.63,0 5.1,-0.49 7.4,-1.47 2.31,-0.98 4.29,-2.49 5.95,-4.52 1.66,-2.03 2.98,-4.59 3.96,-7.67 0.98,-3.09 1.47,-6.69 1.47,-10.82 0,-4.27 -0.51,-7.95 -1.52,-11.03 -1.02,-3.08 -2.39,-5.62 -4.12,-7.62 -1.72,-2 -3.76,-3.47 -6.09,-4.42 -2.34,-0.95 -4.83,-1.42 -7.46,-1.42 -2.64,0 -5.11,0.49 -7.42,1.47 -2.3,0.99 -4.28,2.49 -5.94,4.52 -1.66,2.04 -2.98,4.59 -3.96,7.68 -0.98,3.08 -1.48,6.68 -1.48,10.82zm18.39 -39.63l-8.63 0 8.13 -12.6 11.87 0 -11.37 12.6z"/>
   <path id="7" class="fil1" d="M435.51 299.81l9.65 0 26.82 38.31c1.22,1.76 2.37,3.52 3.45,5.28 1.08,1.76 2,3.35 2.74,4.77l0.21 0c-0.34,-5.01 -0.51,-10 -0.51,-14.98 0,-4.98 0,-10.01 0,-15.09l0 -18.29 10.46 0 0 64.01 -9.65 0 -26.1 -37.08c-1.29,-1.83 -2.54,-3.81 -3.76,-5.95 -1.22,-2.13 -2.27,-4.04 -3.15,-5.74l-0.2 0c0.34,5.29 0.51,10.52 0.51,15.7 0,5.18 0,10.38 0,15.59l0 17.48 -10.47 0 0 -64.01z"/>
   <polygon id="8" class="fil1" points="514.64,299.81 514.64,363.82 503.77,363.82 503.77,299.81 "/>
   <path id="9" class="fil1" d="M559.22 356.1c3.32,0 6.08,-0.29 8.28,-0.87 2.2,-0.57 4.29,-1.33 6.25,-2.28l2.34 8.43c-2.17,1.02 -4.68,1.85 -7.52,2.49 -2.85,0.64 -6.34,0.97 -10.47,0.97 -4.39,0 -8.5,-0.73 -12.33,-2.19 -3.83,-1.45 -7.15,-3.59 -9.96,-6.4 -2.81,-2.81 -5.03,-6.26 -6.65,-10.36 -1.63,-4.1 -2.44,-8.79 -2.44,-14.07 0,-5.15 0.78,-9.77 2.34,-13.87 1.55,-4.1 3.74,-7.57 6.55,-10.42 2.81,-2.84 6.16,-5.01 10.06,-6.5 3.89,-1.49 8.18,-2.23 12.84,-2.23 4.27,0 7.77,0.35 10.52,1.06 2.74,0.71 5.16,1.65 7.26,2.8l-2.54 8.23c-2.3,-1.02 -4.49,-1.83 -6.55,-2.44 -2.07,-0.61 -4.52,-0.92 -7.37,-0.92 -2.91,0 -5.66,0.44 -8.27,1.32 -2.61,0.88 -4.88,2.31 -6.81,4.27 -1.93,1.97 -3.47,4.49 -4.62,7.57 -1.15,3.08 -1.73,6.79 -1.73,11.13 0,4.33 0.56,8.04 1.68,11.12 1.12,3.08 2.61,5.59 4.47,7.52 1.86,1.93 4.06,3.35 6.6,4.27 2.54,0.91 5.23,1.37 8.07,1.37z"/>
   <path id="10" class="fil1" d="M600.15 338.72l19.41 0 -3.76 -10.36c-1.15,-2.84 -2.15,-5.5 -3,-7.97 -0.84,-2.48 -1.74,-5.3 -2.69,-8.49l-0.2 0c-1.02,2.98 -1.97,5.74 -2.85,8.28 -0.88,2.54 -1.89,5.3 -3.04,8.28l-3.87 10.26zm4.88 -38.91l10.36 0 24.89 64.01 -11.38 0 -6.4 -16.76 -25.09 0 -6.3 16.76 -11.27 0 25.19 -64.01z"/>
  </g>
 </g>
</svg>
