<svg xmlns="http://www.w3.org/2000/svg" width="50mm" height="50mm" viewBox="0 0 5000 5000" shape-rendering="geometricPrecision" text-rendering="geometricPrecision" image-rendering="optimizeQuality" fill-rule="evenodd" clip-rule="evenodd"><defs><style>.fil2{fill:#fff}</style></defs><g id="Capa_x0020_1"><circle cx="2493.82" cy="2506.86" r="2489" fill="#1a1a1a"/><path d="M2247.67 955.89c785.6-973.64 2735.15 176.33 2735.15 1550.97 0 1374.63-1346.2 138.34-2143.06 1384.66C2042.91 5137.83 4.82 3881.49 4.82 2506.86c0-1374.64 1457.25-577.33 2242.85-1550.97z" fill="#333"/><g id="_1851976937520"><path class="fil2" d="M2484.14 1437.76h54.2l411.76 20.55c67.97 3.8 135.77 7.92 203.76 12.52 119.86 8.1 166.8.18 252.8 71.34 24.36 20.15 112.08 161.24 131.97 192.9 41.34 65.81 132.1 206.19 163.59 269.72 99.41 9.58 54.65-107.02 135.98-132.92 36.55-11.64 81.71 2.41 117.72 9.11 40.12 7.46 75.03 18.15 90.88 44.12 18.23 29.87 10.68 80.9-5.29 109.78-17.61 31.84-40.84 41.16-85.04 50.06-38.44 7.74-76.31 12.23-114.91 20.55-59.67 12.86-39.64-22.96-75.94-19.5-8.34.79-20.87 3.43-26.27 7.66 7.87 11.67 41.98 32.23 56.19 42.39 19.84 14.18 37.71 28.14 56.24 42.67 26.95 21.12 128.8 128.28 147.35 151.25 57.94 71.76 40.05 65.02 56.09 141.6 20.67 98.59 8.94 175.33-.22 276.47l-42.65 453.99c-3.58 34.67-5 57.67-5.16 92.42-.29 65.9-73.64 52.11-145.04 52.73l-589.21 7.59c-130.88 2.26-261.25 3.19-391.89 4.99-132.29 1.81-264.6 5.06-396.91 4.95V1437.76zm899.94 129.82l77.42 121.57c37.48 61.88 200.81 344.45 222.09 381.58-400.11-16.78-798.71-41.34-1199.45-39.36v-511.95c296.99 16.85 601.99 34.66 899.94 48.16zm-470.52 1616.8c-48.43 17.68-236.95 32.02-429.42 30.18V2612.7c122.33 1.76 595.82 6.82 643.84 82.49 48.03 75.68-54.76 430.91-214.42 489.19zm861.77-205.42c203.66 18.53 159.32 119.45 144.85 238.22-12.21 32.8-48.91 36.2-90.31 36.18-128.04 6.75-411.97 13.53-501.81-5.92-71.99-15.59-102.53-70.69-124.36-133.99-79.55-230.59 372.51-152.62 571.63-134.49zm-564.37-532.08c61.42-26.01 548.74-74.19 633.12-69.53 64.24 3.55 48.99 138.87 30.86 177.12-60.97 128.59-607.41 147.05-663.98-107.59zm397.65 965.27c37.19-3.11 179.68-3.06 227.37-3.47 36.5-.31 76.05.16 112.67-1.59 46.78-2.24 55.96-10.64 86.65-29.69 1.85 20.5 2.17 201.75-.89 212.39-8.31 28.89-47.96 20.97-85.49 20.97-49.1 0-309.92 1.98-321.94-2.42-26.89-9.84-18.74-54.92-18.74-87.89 0-33.96-2.1-75.24.37-108.3zm163.47-405.54c55.3 9.28 103.28 62.25 91.49 129.9-9.46 54.25-61.58 101.65-128.24 91.01-54.97-8.76-103.11-61.46-92.62-128.29 8.8-56.09 62.5-103.84 129.37-92.62zm-224.57 32.71c104.57 26.73 63.45 181.7-39.12 154.69-100.7-26.53-61.91-180.52 39.12-154.69z"/><path class="fil2" d="M2503.51 1437.76h-54.2l-411.76 20.55c-67.97 3.8-135.77 7.92-203.76 12.52-119.86 8.1-166.8.18-252.8 71.34-24.36 20.15-112.08 161.24-131.97 192.9-41.34 65.81-132.1 206.19-163.59 269.72-99.41 9.58-54.65-107.02-135.98-132.92-36.55-11.64-81.71 2.41-117.71 9.11-40.12 7.46-75.04 18.15-90.89 44.12-18.23 29.87-10.68 80.9 5.29 109.78 17.61 31.84 40.84 41.16 85.04 50.06 38.44 7.74 76.31 12.23 114.92 20.55 59.66 12.86 39.63-22.96 75.93-19.5 8.34.79 20.87 3.43 26.27 7.66-7.86 11.67-41.98 32.23-56.19 42.39-19.84 14.18-37.7 28.14-56.24 42.67-26.95 21.12-128.8 128.28-147.35 151.25-57.94 71.76-40.05 65.02-56.09 141.6-20.67 98.59-8.94 175.33.23 276.47l42.64 453.99c3.58 34.67 5 57.67 5.16 92.42.29 65.9 73.64 52.11 145.04 52.73l589.21 7.59c130.88 2.26 261.25 3.19 391.89 4.99 132.29 1.81 264.6 5.06 396.91 4.95V1437.76zm-899.94 129.82l-77.42 121.57c-37.47 61.88-200.81 344.45-222.09 381.58 400.11-16.78 798.71-41.34 1199.45-39.36v-511.95c-296.99 16.85-601.99 34.66-899.94 48.16zm470.52 1616.8c48.43 17.68 236.95 32.02 429.42 30.18V2612.7c-122.32 1.76-595.82 6.82-643.84 82.49-48.03 75.68 54.76 430.91 214.42 489.19zm-861.77-205.42c-203.66 18.53-159.32 119.45-144.85 238.22 12.21 32.8 48.91 36.2 90.31 36.18 128.04 6.75 411.97 13.53 501.81-5.92 71.99-15.59 102.53-70.69 124.36-133.99 79.55-230.59-372.51-152.62-571.63-134.49zm564.37-532.08c-61.42-26.01-548.74-74.19-633.12-69.53-64.24 3.55-48.99 138.87-30.86 177.12 60.97 128.59 607.41 147.05 663.98-107.59zm-397.65 965.27c-37.19-3.11-179.68-3.06-227.37-3.47-36.5-.31-76.05.16-112.67-1.59-46.78-2.24-55.96-10.64-86.65-29.69-1.85 20.5-2.17 201.75.89 212.39 8.31 28.89 47.96 20.97 85.5 20.97 49.09 0 309.91 1.98 321.93-2.42 26.9-9.84 18.74-54.92 18.74-87.89 0-33.96 2.1-75.24-.37-108.3zm-163.46-405.54c-55.31 9.28-103.29 62.25-91.5 129.9 9.46 54.25 61.58 101.65 128.24 91.01 54.97-8.76 103.11-61.46 92.62-128.29-8.8-56.09-62.5-103.84-129.36-92.62zm224.57 32.71c-104.58 26.73-63.46 181.7 39.11 154.69 100.71-26.53 61.91-180.52-39.11-154.69z"/></g></g></svg>