<?xml version="1.0" encoding="UTF-8"?>
<!DOCTYPE svg PUBLIC "-//W3C//DTD SVG 1.1//EN" "http://www.w3.org/Graphics/SVG/1.1/DTD/svg11.dtd">
<!-- Creator: CorelDRAW 2019 (64-Bit) -->
<svg xmlns="http://www.w3.org/2000/svg" xml:space="preserve" width="100mm" height="100mm" version="1.1" style="shape-rendering:geometricPrecision; text-rendering:geometricPrecision; image-rendering:optimizeQuality; fill-rule:evenodd; clip-rule:evenodd"
viewBox="0 0 10000 10000"
 xmlns:xlink="http://www.w3.org/1999/xlink"
 xmlns:xodm="http://www.corel.com/coreldraw/odm/2003">
 <defs>
  <style type="text/css">
   <![CDATA[
    .fil0 {fill:#1A1A1A}
    .fil1 {fill:#333333}
    .fil2 {fill:white}
    .fil3 {fill:white;fill-rule:nonzero}
   ]]>
  </style>
 </defs>
 <g id="Capa_x0020_1">
  <metadata id="CorelCorpID_0Corel-Layer"/>
  <circle class="fil0" cx="4988.83" cy="5011.68" r="4949.5"/>
  <path class="fil1" d="M4697.79 2020.11c1569.37,-1931.46 5240.53,258.04 5240.53,2991.57 0,2733.53 -2692.22,213.46 -4261.57,2753.46 -1569.35,2540 -5637.42,-19.93 -5637.42,-2753.46 0,-2733.53 3089.09,-1060.11 4658.46,-2991.57z"/>
  <path class="fil2" d="M1234.35 5172.12l773.44 76.42c-149.3,-1261.11 1476.42,-1210.66 1289.45,-27.96l3380.3 -6.69c-220.82,-1123.69 1427.8,-1191.12 1272.9,-29.01 557.77,-41.37 936.29,-3.36 734.08,-812.02 -72.07,-184.54 -119.62,-550.06 -49.89,-700.47 -1069.81,185.12 -1826.44,-852.75 -3602.23,-678.02 -696.08,68.49 -1266.63,355.24 -2045.6,746.63 -530.86,100.57 -943.32,99.54 -1450.2,405.29 -247.38,149.21 -344.3,367.12 -362.42,607.16 112.06,267.61 135.77,151.5 60.17,418.67zm6789.86 -1067.04c23.61,364.37 535.04,275.15 496.06,154.75 -98.47,-304.07 -519.68,-519.12 -496.06,-154.75zm-6478.01 353.96c-6.69,268.04 457.04,69.68 673.68,-131.83 216.64,-201.51 -666.99,-136.2 -673.68,131.83zm3487.18 -1341.22c-713.37,72.11 -1714.79,567.44 -1652.46,693.76 33.98,68.83 1046.98,43.01 2061.29,33.37 1001.32,-9.52 2004.2,-1.93 2029.4,-82.52 51.44,-164.44 -1279.77,-761.72 -2438.23,-644.61z"/>
  <circle class="fil2" cx="2651.29" cy="4988.43" r="541.8"/>
  <circle class="fil2" cx="7313.69" cy="5004.25" r="541.8"/>
  <path class="fil3" d="M5782.54 7314.96l-377.63 0 -109.51 -342.46 -547.19 0 -108.42 342.46 -375.79 0 560.39 -1538.69 410.94 0 547.21 1538.69zm-566.62 -608.37l-165.18 -517.16c-12.08,-38.83 -20.88,-84.98 -26,-138.46l-8.43 0c-3.67,45.05 -12.46,89.74 -26.74,134.06l-167.38 521.56 393.73 0z"/>
 </g>
</svg>
